<?xml version="1.0" standalone="no"?>
<!DOCTYPE svg PUBLIC "-//W3C//DTD SVG 20010904//EN"
 "http://www.w3.org/TR/2001/REC-SVG-20010904/DTD/svg10.dtd">
<svg version="1.0" xmlns="http://www.w3.org/2000/svg"
 width="236.000000pt" height="236.000000pt" viewBox="0 0 236.000000 236.000000"
 preserveAspectRatio="xMidYMid meet">
<metadata>
Created by potrace 1.14, written by Peter Selinger 2001-2017
</metadata>
<g transform="translate(0.000000,236.000000) scale(0.100000,-0.100000)"
fill="#000000" stroke="none">
<path d="M0 1180 l0 -1180 1180 0 1180 0 0 1180 0 1180 -1180 0 -1180 0 0
-1180z m710 1039 c134 -21 243 -93 298 -196 69 -131 67 -106 67 -843 0 -617
-1 -669 -18 -725 -44 -142 -109 -224 -221 -276 -90 -41 -161 -49 -473 -49
l-283 0 0 1050 0 1050 283 0 c155 0 311 -5 347 -11z m920 -414 l0 -425 170 0
170 0 0 425 0 425 170 0 170 0 0 -1050 0 -1050 -170 0 -170 0 0 470 0 470
-170 0 -170 0 0 -470 0 -470 -170 0 -170 0 0 1050 0 1050 170 0 170 0 0 -425z"/>
<path d="M410 1180 l0 -752 119 4 c133 3 157 13 196 79 19 33 20 52 20 669 0
617 -1 636 -20 669 -39 66 -63 76 -196 79 l-119 4 0 -752z"/>
</g>
</svg>
